<svg width="75" height="75" viewBox="0 0 75 75" fill="none" xmlns="http://www.w3.org/2000/svg">
<g filter="url(#filter0_d_102_460)">
<rect x="5.30157" y="2.58044" width="64" height="64" rx="32" fill="#7C3AED"/>
</g>
<rect x="9.50525" y="6.78369" width="55.5928" height="55.5928" rx="27.7964" fill="white"/>
<rect x="21.4467" y="18.7252" width="7.92746" height="7.92746" rx="2" fill="#258F1C"/>
<rect x="21.4466" y="30.6165" width="7.92746" height="7.92746" rx="2" fill="#F59E0B"/>
<rect x="21.4466" y="42.5077" width="7.92746" height="7.92746" rx="2" fill="#DC2626"/>
<rect x="33.3378" y="18.7252" width="7.92746" height="7.92746" rx="2" fill="#258F1C"/>
<rect x="33.3378" y="30.6165" width="7.92746" height="7.92746" rx="2" fill="#F59E0B"/>
<rect x="33.3378" y="42.5077" width="7.92746" height="7.92746" rx="2" fill="#DC2626"/>
<rect x="45.2291" y="18.7252" width="7.92746" height="7.92746" rx="2" fill="#258F1C"/>
<rect x="45.2291" y="30.6165" width="7.92746" height="7.92746" rx="2" fill="#F59E0B"/>
<rect x="45.2291" y="42.5077" width="7.92746" height="7.92746" rx="2" fill="#DC2626"/>
<defs>
<filter id="filter0_d_102_460" x="0.301575" y="0.580444" width="74" height="74" filterUnits="userSpaceOnUse" color-interpolation-filters="sRGB">
<feFlood flood-opacity="0" result="BackgroundImageFix"/>
<feColorMatrix in="SourceAlpha" type="matrix" values="0 0 0 0 0 0 0 0 0 0 0 0 0 0 0 0 0 0 127 0" result="hardAlpha"/>
<feOffset dy="3"/>
<feGaussianBlur stdDeviation="2.5"/>
<feComposite in2="hardAlpha" operator="out"/>
<feColorMatrix type="matrix" values="0 0 0 0 0.0588235 0 0 0 0 0.0901961 0 0 0 0 0.164706 0 0 0 0.25 0"/>
<feBlend mode="normal" in2="BackgroundImageFix" result="effect1_dropShadow_102_460"/>
<feBlend mode="normal" in="SourceGraphic" in2="effect1_dropShadow_102_460" result="shape"/>
</filter>
</defs>
</svg>
